HIERARCHY
ROOT Hips
{
	OFFSET 0.000000 0.000000 0.000000
	CHANNELS 6 Xposition Yposition Zposition Zrotation Yrotation Xrotation 
	JOINT LHipJoint
	{
		OFFSET 0.000000 0.000000 0.000000
		CHANNELS 3 Zrotation Yrotation Xrotation
		JOINT LeftUpLeg
		{
			OFFSET 1.363060 -1.794630 0.839290
			CHANNELS 3 Zrotation Yrotation Xrotation
			JOINT LeftLeg
			{
				OFFSET 2.448110 -6.726130 0.000000
				CHANNELS 3 Zrotation Yrotation Xrotation
				JOINT LeftFoot
				{
					OFFSET 2.562200 -7.039590 0.000000
					CHANNELS 3 Zrotation Yrotation Xrotation
					JOINT LeftToeBase
					{
						OFFSET 0.157640 -0.433110 2.322550
						CHANNELS 3 Zrotation Yrotation Xrotation
						End Site
						{
							OFFSET 0.000000 0.000000 0.000000
						}
					}
				}
			}
		}
	}
	JOINT RHipJoint
	{
		OFFSET 0.000000 0.000000 0.000000
		CHANNELS 3 Zrotation Yrotation Xrotation
		JOINT RightUpLeg
		{
			OFFSET -1.305520 -1.794630 0.839290
			CHANNELS 3 Zrotation Yrotation Xrotation
			JOINT RightLeg
			{
				OFFSET -2.542530 -6.985550 0.000000
				CHANNELS 3 Zrotation Yrotation Xrotation
				JOINT RightFoot
				{
					OFFSET -2.568260 -7.056230 0.000000
					CHANNELS 3 Zrotation Yrotation Xrotation
					JOINT RightToeBase
					{
						OFFSET -0.164730 -0.452590 2.363150
						CHANNELS 3 Zrotation Yrotation Xrotation
						End Site
						{
							OFFSET 0.000000 0.000000 0.000000
						}
					}
				}
			}
		}
	}
	JOINT LowerBack
	{
		OFFSET 0.000000 0.000000 0.000000
		CHANNELS 3 Zrotation Yrotation Xrotation
		JOINT Spine
		{
			OFFSET 0.028270 2.035590 -0.193380
			CHANNELS 3 Zrotation Yrotation Xrotation
			JOINT Spine1
			{
				OFFSET 0.056720 2.048850 -0.042750
				CHANNELS 3 Zrotation Yrotation Xrotation
				JOINT Neck
				{
					OFFSET 0.000000 0.000000 0.000000
					CHANNELS 3 Zrotation Yrotation Xrotation
					JOINT Neck1
					{
						OFFSET -0.054170 1.746240 0.172020
						CHANNELS 3 Zrotation Yrotation Xrotation
						JOINT Head
						{
							OFFSET 0.104070 1.761360 -0.123970
							CHANNELS 3 Zrotation Yrotation Xrotation
							End Site
							{
								OFFSET 0.000000 0.000000 0.000000
							}
						}
					}
				}
				JOINT LeftShoulder
				{
					OFFSET 0.000000 0.000000 0.000000
					CHANNELS 3 Zrotation Yrotation Xrotation
					JOINT LeftArm
					{
						OFFSET 3.362410 1.200890 -0.311210
						CHANNELS 3 Zrotation Yrotation Xrotation
						JOINT LeftForeArm
						{
							OFFSET 4.983000 -0.000000 -0.000000
							CHANNELS 3 Zrotation Yrotation Xrotation
							JOINT LeftHand
							{
								OFFSET 3.483560 -0.000000 -0.000000
								CHANNELS 3 Zrotation Yrotation Xrotation
								JOINT LeftFingerBase
								{
									OFFSET 0.000000 0.000000 0.000000
									CHANNELS 3 Zrotation Yrotation Xrotation
									JOINT LeftHandIndex1
									{
										OFFSET 0.715260 -0.000000 -0.000000
										CHANNELS 3 Zrotation Yrotation Xrotation
										End Site
										{
											OFFSET 0.000000 0.000000 0.000000
										}
									}
								}
								JOINT LThumb
								{
									OFFSET 0.000000 0.000000 0.000000
									CHANNELS 3 Zrotation Yrotation Xrotation
									End Site
									{
										OFFSET 0.000000 0.000000 0.000000
									}
								}
							}
						}
					}
				}
				JOINT RightShoulder
				{
					OFFSET 0.000000 0.000000 0.000000
					CHANNELS 3 Zrotation Yrotation Xrotation
					JOINT RightArm
					{
						OFFSET -3.136600 1.374050 -0.404650
						CHANNELS 3 Zrotation Yrotation Xrotation
						JOINT RightForeArm
						{
							OFFSET -5.241900 -0.000000 -0.000000
							CHANNELS 3 Zrotation Yrotation Xrotation
							JOINT RightHand
							{
								OFFSET -3.444170 -0.000000 -0.000000
								CHANNELS 3 Zrotation Yrotation Xrotation
								JOINT RightFingerBase
								{
									OFFSET 0.000000 0.000000 0.000000
									CHANNELS 3 Zrotation Yrotation Xrotation
									JOINT RightHandIndex1
									{
										OFFSET -0.622530 -0.000000 -0.000000
										CHANNELS 3 Zrotation Yrotation Xrotation
										End Site
										{
											OFFSET 0.000000 0.000000 0.000000
										}
									}
								}
								JOINT RThumb
								{
									OFFSET 0.000000 0.000000 0.000000
									CHANNELS 3 Zrotation Yrotation Xrotation
									End Site
									{
										OFFSET 0.000000 0.000000 0.000000
									}
								}
							}
						}
					}
				}
			}
		}
	}
}
MOTION
Frames: 10
Frame Time: 0.008333
9.801970 18.091691 25.460011 -13.934064 48.282404 -5.538193 1.895690 3.297211 3.703633 -1.570604 -33.454137 -16.911299 6.659739 12.111193 40.302251 8.770326 6.813969 -58.516609 0.930300 -6.144200 -17.203400 -7.540258 -4.565128 3.597806 36.904587 11.738327 -21.618639 -4.871653 -8.772800 29.590713 0.090354 13.755279 -18.467129 -0.037100 1.243500 -3.418900 -0.484256 1.443974 1.958711 -8.647960 1.428916 23.087147 5.444328 1.358356 -13.080085 1.098552 -2.067727 -15.341201 -3.904385 1.900727 45.637828 -2.760700 1.862200 18.939400 3.447340 -8.274260 -0.207779 -87.196623 -16.498462 24.574430 21.595289 -21.669142 -3.618151 0.422955 0.362103 -18.660199 21.855687 10.068728 3.835300 -7.125000 0.000000 0.000000 -4.991600 40.522600 0.552600 1.458498 11.576366 0.079183 93.260785 17.758435 26.159571 -20.667821 20.628537 -3.871655 0.302301 -0.304403 -0.756912 -23.422310 -8.148245 3.410000 7.125000 0.000000 0.000000 2.682500 -38.469400 0.431800 
9.716939 18.087880 25.609164 -13.904163 48.163621 -5.525300 1.895677 3.291022 3.700392 -1.550959 -33.503594 -16.857907 6.664853 12.118521 40.332797 8.786355 6.791781 -58.573364 0.928600 -6.138800 -17.187500 -7.540089 -4.567094 3.589319 36.956491 11.664995 -21.571608 -4.868802 -8.770910 29.585732 0.102245 13.877462 -18.475689 -0.036300 1.230100 -3.382200 -0.530828 1.434715 1.922341 -8.607716 1.403463 23.066357 5.460615 1.352825 -13.051539 0.965584 -2.107983 -15.287367 -4.180959 1.983146 45.624456 -2.851400 1.831700 18.944000 3.439513 -8.288052 -0.203822 -87.164195 -16.502680 24.548583 21.635760 -21.722427 -3.634508 0.427220 0.361543 -18.661873 21.864463 9.962077 3.796100 -7.125000 0.000000 0.000000 -4.972800 40.411700 0.564200 1.455945 11.563640 0.076963 93.226348 17.720070 26.116443 -20.689101 20.649277 -3.876338 0.300179 -0.300973 -0.738699 -23.304814 -8.186744 3.409200 7.125000 0.000000 0.000000 2.789400 -38.507200 0.446500 
9.632001 18.084256 25.757666 -13.866075 48.046402 -5.504826 1.896029 3.284461 3.696687 -1.534006 -33.546847 -16.804617 6.668606 12.123992 40.356006 8.799184 6.771359 -58.618485 0.927600 -6.135500 -17.177900 -7.539500 -4.568983 3.582030 37.003819 11.602391 -21.528286 -4.867198 -8.771589 29.589143 0.112258 13.994005 -18.495791 -0.035800 1.221100 -3.357300 -0.581658 1.423510 1.882065 -8.564476 1.374415 23.044537 5.478372 1.345746 -13.020983 0.823594 -2.146237 -15.228161 -4.455884 2.069970 45.605263 -2.939200 1.802000 18.944900 3.430824 -8.302763 -0.200436 -87.139964 -16.510012 24.497328 21.666006 -21.760955 -3.645585 0.431222 0.360270 -18.616871 21.828395 9.854112 3.748000 -7.125000 0.000000 0.000000 -4.992600 40.295600 0.580700 1.453922 11.551111 0.074865 93.188762 17.676569 26.078759 -20.710470 20.669574 -3.881134 0.297585 -0.298073 -0.737398 -23.194184 -8.203857 3.399800 7.125000 0.000000 0.000000 2.888600 -38.521600 0.461400 
9.546970 18.080632 25.905517 -13.827054 47.929444 -5.483798 1.897689 3.277041 3.692099 -1.516410 -33.579208 -16.748886 6.670896 12.127108 40.370301 8.808811 6.751381 -58.650767 0.926200 -6.131100 -17.165300 -7.537322 -4.570772 3.576541 37.050734 11.553259 -21.486056 -4.866656 -8.775279 29.601325 0.118861 14.098664 -18.532717 -0.035800 1.221300 -3.357900 -0.648108 1.408971 1.836095 -8.496012 1.336435 23.026306 5.498362 1.336075 -12.988503 0.670678 -2.177502 -15.165245 -4.730197 2.168902 45.580395 -3.022800 1.775500 18.943000 3.418678 -8.317639 -0.197879 -87.121476 -16.512040 24.421648 21.691010 -21.791347 -3.653427 0.434995 0.358335 -18.537937 21.755186 9.748334 3.693900 -7.125000 0.000000 0.000000 -5.044600 40.178900 0.601300 1.450229 11.538328 0.072802 93.142397 17.627021 26.064275 -20.731924 20.689485 -3.886435 0.294800 -0.295861 -0.760102 -23.098677 -8.202946 3.384700 7.125000 0.000000 0.000000 2.973400 -38.516500 0.475300 
9.462032 18.077193 26.052811 -13.786449 47.812769 -5.462286 1.900439 3.268944 3.686688 -1.499015 -33.601557 -16.690804 6.671632 12.127994 40.375282 8.814540 6.737114 -58.669040 0.926600 -6.132300 -17.168800 -7.533945 -4.572184 3.572422 37.097387 11.517315 -21.443648 -4.867000 -8.781404 29.620800 0.121926 14.192939 -18.587562 -0.036400 1.231700 -3.386500 -0.725301 1.391184 1.787193 -8.408784 1.291082 23.009145 5.519289 1.324016 -12.955459 0.510692 -2.202687 -15.097671 -5.003744 2.277210 45.549845 -3.103000 1.751800 18.937800 3.403328 -8.332893 -0.196103 -87.111661 -16.509293 24.336102 21.711045 -21.815386 -3.659264 0.438258 0.356679 -18.467992 21.703317 9.653419 3.648200 -7.125000 0.000000 0.000000 -5.079100 40.075500 0.618400 1.445725 11.525386 0.070842 93.087817 17.572386 26.068540 -20.750929 20.705631 -3.891327 0.291682 -0.294676 -0.802395 -23.020012 -8.177330 3.361200 7.125000 0.000000 0.000000 3.041500 -38.484600 0.488600 
9.377001 18.073941 26.199269 -13.742376 47.695595 -5.441245 1.903086 3.260257 3.680775 -1.484355 -33.611682 -16.627355 6.670773 12.126894 40.371108 8.816712 6.724945 -58.674532 0.926900 -6.133300 -17.171700 -7.530956 -4.572562 3.568647 37.144155 11.493503 -21.396004 -4.868046 -8.789092 29.645547 0.120947 14.275588 -18.662651 -0.037900 1.256300 -3.454300 -0.798527 1.373268 1.740687 -8.327446 1.246724 22.990839 5.539668 1.311965 -12.922816 0.352699 -2.224466 -15.022564 -5.274834 2.387591 45.512155 -3.182100 1.729800 18.927800 3.388534 -8.348653 -0.194479 -87.103572 -16.502319 24.256178 21.727514 -21.834907 -3.663944 0.440732 0.355717 -18.412083 21.676970 9.584783 3.617200 -7.125000 0.000000 0.000000 -5.094600 40.001500 0.629600 1.442105 11.512159 0.068467 93.037331 17.514771 26.066588 -20.767156 20.718906 -3.895698 0.288921 -0.294397 -0.844665 -22.968295 -8.143596 3.338300 7.125000 0.000000 0.000000 3.085300 -38.444600 0.498700 
9.291970 18.070874 26.345169 -13.696209 47.574783 -5.425309 1.905676 3.250403 3.674222 -1.473129 -33.605414 -16.552908 6.668375 12.123845 40.357854 8.815596 6.718461 -58.668888 0.928100 -6.137300 -17.183400 -7.528543 -4.571499 3.564914 37.194019 11.483058 -21.334741 -4.869259 -8.797374 29.672592 0.116664 14.351374 -18.756179 -0.039700 1.286300 -3.536800 -0.872783 1.357617 1.697107 -8.246547 1.205528 22.976343 5.560097 1.301442 -12.891517 0.199712 -2.243443 -14.941298 -5.543550 2.498052 45.468164 -3.260900 1.709100 18.914000 3.373912 -8.364705 -0.193482 -87.098832 -16.492657 24.186983 21.739064 -21.848232 -3.667082 0.442593 0.355393 -18.375627 21.678409 9.531678 3.597200 -7.125000 0.000000 0.000000 -5.087600 39.945600 0.635800 1.438091 11.498866 0.065431 92.992299 17.457640 26.046406 -20.779298 20.727986 -3.898856 0.286323 -0.295230 -0.872822 -22.940553 -8.100565 3.314900 7.125000 0.000000 0.000000 3.107300 -38.395200 0.506000 
9.206846 18.067993 26.490511 -13.645093 47.451136 -5.411513 1.907220 3.239787 3.667329 -1.466087 -33.583220 -16.469132 6.664688 12.119349 40.335735 8.810962 6.722642 -58.652002 0.931000 -6.146600 -17.210300 -7.527790 -4.568929 3.560393 37.245820 11.481513 -21.260689 -4.870279 -8.805475 29.699353 0.109985 14.423968 -18.862878 -0.041800 1.319200 -3.627700 -0.936715 1.344403 1.659378 -8.186912 1.171321 22.960141 5.580214 1.293058 -12.861649 0.053875 -2.262191 -14.854340 -5.806284 2.603771 45.420262 -3.339200 1.688700 18.897400 3.362260 -8.380820 -0.192293 -87.091234 -16.478194 24.137526 21.747192 -21.857501 -3.669782 0.443790 0.356165 -18.368222 21.720161 9.500157 3.592500 -7.125000 0.000000 0.000000 -5.048000 39.914900 0.634600 1.435798 11.485504 0.061806 92.956651 17.400871 26.003802 -20.787794 20.733409 -3.900818 0.284103 -0.296650 -0.886180 -22.929660 -8.057379 3.294000 7.125000 0.000000 0.000000 3.114300 -38.346100 0.510900 
9.121537 18.065206 26.635482 -13.587889 47.322991 -5.400001 1.908256 3.227725 3.659721 -1.465579 -33.544201 -16.371232 6.659291 12.112943 40.304636 8.805105 6.722691 -58.630894 0.934100 -6.156400 -17.239000 -7.528819 -4.564542 3.555191 37.299446 11.494763 -21.167324 -4.870734 -8.812678 29.723545 0.100438 14.494668 -18.988112 -0.044000 1.353500 -3.721900 -0.999017 1.335811 1.625563 -8.140132 1.145056 22.945932 5.601898 1.288117 -12.832768 -0.086937 -2.281241 -14.765368 -6.062633 2.705153 45.373332 -3.416400 1.668600 18.881700 3.352694 -8.396433 -0.191278 -87.082104 -16.459194 24.110505 21.752499 -21.863413 -3.672082 0.444281 0.357883 -18.395809 21.798758 9.488931 3.602100 -7.125000 0.000000 0.000000 -4.979000 39.908000 0.626700 1.433903 11.472288 0.057659 92.926687 17.343813 25.937958 -20.793713 20.736790 -3.901857 0.282059 -0.298535 -0.884416 -22.928817 -8.014671 3.274700 7.125000 0.000000 0.000000 3.112500 -38.297700 0.514300 
9.036134 18.062418 26.780081 -13.527640 47.192014 -5.392163 1.908422 3.214570 3.651710 -1.467521 -33.488223 -16.261432 6.652080 12.104862 40.265020 8.799263 6.715091 -58.608823 0.938500 -6.170500 -17.279900 -7.531653 -4.558799 3.548996 37.357089 11.514588 -21.057179 -4.870343 -8.818239 29.742825 0.089598 14.568041 -19.122303 -0.046200 1.386500 -3.813000 -1.055185 1.332203 1.594086 -8.109817 1.127899 22.933762 5.624202 1.286654 -12.803629 -0.216942 -2.302240 -14.673424 -6.317477 2.799219 45.325500 -3.496200 1.647800 18.865900 3.345760 -8.412005 -0.190301 -87.069405 -16.435705 24.106870 21.754735 -21.865030 -3.673760 0.444228 0.360184 -18.440270 21.890283 9.492876 3.619800 -7.125000 0.000000 0.000000 -4.900300 39.917800 0.615600 1.432505 11.459171 0.052688 92.906852 17.288763 25.839892 -20.796789 20.737581 -3.901342 0.279973 -0.300427 -0.858096 -22.920986 -7.976133 3.256100 7.125000 0.000000 0.000000 3.117000 -38.253500 0.518400 
